HIERARCHY
ROOT newVegas:Hips
{
	OFFSET 0.000000 96.479958 0.000000
	CHANNELS 6 Xposition Yposition Zposition Xrotation Yrotation Zrotation
	JOINT newVegas:Pelvis
	{
		OFFSET 0.000000 0.000000 0.000000
		CHANNELS 3 Xrotation Yrotation Zrotation
		JOINT newVegas:LeftUpLeg
		{
			OFFSET 18.735201 -5.666702 -4.541200
			CHANNELS 3 Xrotation Yrotation Zrotation
			JOINT newVegas:LeftLeg
			{
				OFFSET -0.021200 -31.938179 0.493100
				CHANNELS 3 Xrotation Yrotation Zrotation
				JOINT newVegas:LeftFoot
				{
					OFFSET 0.021200 -31.938179 -4.336299
					CHANNELS 3 Xrotation Yrotation Zrotation
					JOINT newVegas:LeftToeBase
					{
						OFFSET 0.943001 -26.722000 15.023500
						CHANNELS 3 Xrotation Yrotation Zrotation
						End Site
						{
							OFFSET 0.000000 30.670183 0.000000
						}
					}
				}
				JOINT newVegas:Left_PantLeg
				{
					OFFSET 0.663870 -9.044666 -1.108900
					CHANNELS 3 Xrotation Yrotation Zrotation
					End Site
					{
						OFFSET 1.415995 20.635357 0.000000
					}
				}
			}
		}
		JOINT newVegas:RightUpLeg
		{
			OFFSET -18.735201 -5.666702 -4.541200
			CHANNELS 3 Xrotation Yrotation Zrotation
			JOINT newVegas:RightLeg
			{
				OFFSET 0.018946 -31.938133 0.493100
				CHANNELS 3 Xrotation Yrotation Zrotation
				JOINT newVegas:RightFoot
				{
					OFFSET -0.018946 -31.938126 -4.336299
					CHANNELS 3 Xrotation Yrotation Zrotation
					JOINT newVegas:RightToeBase
					{
						OFFSET -0.943001 -26.722004 15.023500
						CHANNELS 3 Xrotation Yrotation Zrotation
						End Site
						{
							OFFSET 0.000000 30.670187 0.000000
						}
					}
				}
				JOINT newVegas:Right_PantLeg
				{
					OFFSET -0.661674 -9.044716 -1.108900
					CHANNELS 3 Xrotation Yrotation Zrotation
					End Site
					{
						OFFSET -1.415958 20.635269 0.000000
					}
				}
			}
		}
	}
	JOINT newVegas:Spine
	{
		OFFSET 0.000000 10.199997 -0.299500
		CHANNELS 3 Xrotation Yrotation Zrotation
		JOINT newVegas:Spine1
		{
			OFFSET 0.000000 11.900002 -1.516600
			CHANNELS 3 Xrotation Yrotation Zrotation
			JOINT newVegas:Spine2
			{
				OFFSET 0.000000 13.600006 -2.842500
				CHANNELS 3 Xrotation Yrotation Zrotation
				JOINT newVegas:Neck
				{
					OFFSET 0.000000 9.624100 -2.890100
					CHANNELS 3 Xrotation Yrotation Zrotation
					JOINT newVegas:Head
					{
						OFFSET 0.000000 14.068802 -1.351900
						CHANNELS 3 Xrotation Yrotation Zrotation
						JOINT newVegas:Hair_Back
						{
							OFFSET 0.000000 3.231903 -17.524799
							CHANNELS 3 Xrotation Yrotation Zrotation
							End Site
							{
								OFFSET 0.000000 19.849884 0.000000
							}
						}
						JOINT newVegas:Hair_Front
						{
							OFFSET 0.000000 31.260406 4.573800
							CHANNELS 3 Xrotation Yrotation Zrotation
							JOINT newVegas:Hair_Front1
							{
								OFFSET 0.000000 2.284103 11.993300
								CHANNELS 3 Xrotation Yrotation Zrotation
								JOINT newVegas:Hair_Front2
								{
									OFFSET 0.000000 2.284103 11.993300
									CHANNELS 3 Xrotation Yrotation Zrotation
									End Site
									{
										OFFSET 0.000000 12.208862 0.000000
									}
								}
							}
						}
						JOINT newVegas:Jowel
						{
							OFFSET 0.000000 -7.458206 6.864100
							CHANNELS 3 Xrotation Yrotation Zrotation
							End Site
							{
								OFFSET 0.000000 19.849884 0.000000
							}
						}
					}
				}
				JOINT newVegas:LeftShoulder
				{
					OFFSET 15.263000 10.923401 -0.547700
					CHANNELS 3 Xrotation Yrotation Zrotation
					JOINT newVegas:LeftArm
					{
						OFFSET 25.438599 -2.830597 -13.032500
						CHANNELS 3 Xrotation Yrotation Zrotation
						JOINT newVegas:LeftForeArm
						{
							OFFSET 29.960503 0.000000 0.000000
							CHANNELS 3 Xrotation Yrotation Zrotation
							JOINT newVegas:LeftHand
							{
								OFFSET 27.849251 0.000000 0.000000
								CHANNELS 3 Xrotation Yrotation Zrotation
								JOINT newVegas:LeftHandThumb1
								{
									OFFSET 4.487587 -3.305161 6.305391
									CHANNELS 3 Xrotation Yrotation Zrotation
									JOINT newVegas:LeftHandThumb2
									{
										OFFSET 5.480453 -3.164139 3.164143
										CHANNELS 3 Xrotation Yrotation Zrotation
										JOINT newVegas:LeftHandThumb3
										{
											OFFSET 5.159721 -2.978973 2.978967
											CHANNELS 3 Xrotation Yrotation Zrotation
											End Site
											{
												OFFSET 2.494507 5.926697 1.738678
											}
										}
									}
								}
								JOINT newVegas:LeftHandIndex1
								{
									OFFSET 18.578728 -0.527832 5.208049
									CHANNELS 3 Xrotation Yrotation Zrotation
									JOINT newVegas:LeftHandIndex2
									{
										OFFSET 3.192009 0.000000 0.000000
										CHANNELS 3 Xrotation Yrotation Zrotation
										JOINT newVegas:LeftHandIndex3
										{
											OFFSET 3.835129 0.000000 0.000000
											CHANNELS 3 Xrotation Yrotation Zrotation
											End Site
											{
												OFFSET -0.034599 3.816971 0.371180
											}
										}
									}
								}
								JOINT newVegas:LeftHandMiddle1
								{
									OFFSET 18.476105 0.000000 0.000000
									CHANNELS 3 Xrotation Yrotation Zrotation
									JOINT newVegas:LeftHandMiddle2
									{
										OFFSET 3.324875 0.000000 0.000000
										CHANNELS 3 Xrotation Yrotation Zrotation
										JOINT newVegas:LeftHandMiddle3
										{
											OFFSET 4.596550 0.000000 0.000000
											CHANNELS 3 Xrotation Yrotation Zrotation
											End Site
											{
												OFFSET 0.057701 4.578827 0.399218
											}
										}
									}
								}
								JOINT newVegas:LeftHandRing1
								{
									OFFSET 17.732719 0.121887 -4.201567
									CHANNELS 3 Xrotation Yrotation Zrotation
									JOINT newVegas:LeftHandRing2
									{
										OFFSET 2.733170 0.000000 0.000000
										CHANNELS 3 Xrotation Yrotation Zrotation
										JOINT newVegas:LeftHandRing3
										{
											OFFSET 3.178268 0.000000 0.000000
											CHANNELS 3 Xrotation Yrotation Zrotation
											End Site
											{
												OFFSET 0.119102 3.170624 0.185394
											}
										}
									}
								}
								JOINT newVegas:LeftHandPinky1
								{
									OFFSET 15.989624 -0.606689 -7.535461
									CHANNELS 3 Xrotation Yrotation Zrotation
									JOINT newVegas:LeftHandPinky2
									{
										OFFSET 2.538986 0.000000 0.000000
										CHANNELS 3 Xrotation Yrotation Zrotation
										JOINT newVegas:LeftHandPinky3
										{
											OFFSET 2.593102 0.000000 0.000000
											CHANNELS 3 Xrotation Yrotation Zrotation
											End Site
											{
												OFFSET -0.150902 2.584198 0.152708
											}
										}
									}
								}
							}
							JOINT newVegas:Left_Sleeve
							{
								OFFSET 0.267448 -0.649796 0.577675
								CHANNELS 3 Xrotation Yrotation Zrotation
								End Site
								{
									OFFSET 0.000000 15.991241 0.000000
								}
							}
							JOINT newVegas:Left_CapeC
							{
								OFFSET 15.715958 -8.608795 -6.935905
								CHANNELS 3 Xrotation Yrotation Zrotation
								JOINT newVegas:Left_CapeC1
								{
									OFFSET 0.000000 -8.688499 0.000000
									CHANNELS 3 Xrotation Yrotation Zrotation
									End Site
									{
										OFFSET 0.000000 8.688499 0.000000
									}
								}
							}
						}
						JOINT newVegas:Left_CapeB
						{
							OFFSET 26.118385 -8.608795 -7.079235
							CHANNELS 3 Xrotation Yrotation Zrotation
							JOINT newVegas:Left_CapeB1
							{
								OFFSET 0.000000 -8.688499 0.000000
								CHANNELS 3 Xrotation Yrotation Zrotation
								End Site
								{
									OFFSET 0.000000 8.688499 0.000000
								}
							}
						}
						JOINT newVegas:Left_CapeA
						{
							OFFSET 5.115639 -8.608795 -10.395809
							CHANNELS 3 Xrotation Yrotation Zrotation
							JOINT newVegas:Left_CapeA1
							{
								OFFSET 0.000000 -8.688499 0.000000
								CHANNELS 3 Xrotation Yrotation Zrotation
								End Site
								{
									OFFSET 0.000000 8.688499 0.000000
								}
							}
						}
					}
				}
				JOINT newVegas:RightShoulder
				{
					OFFSET -15.263000 10.923401 -0.547700
					CHANNELS 3 Xrotation Yrotation Zrotation
					JOINT newVegas:RightArm
					{
						OFFSET -25.438599 -2.830597 -13.032500
						CHANNELS 3 Xrotation Yrotation Zrotation
						JOINT newVegas:RightForeArm
						{
							OFFSET -29.960503 0.000000 0.000000
							CHANNELS 3 Xrotation Yrotation Zrotation
							JOINT newVegas:RightHand
							{
								OFFSET -27.849251 0.000000 0.000000
								CHANNELS 3 Xrotation Yrotation Zrotation
								JOINT newVegas:RightHandThumb1
								{
									OFFSET -4.487587 -3.305161 6.305391
									CHANNELS 3 Xrotation Yrotation Zrotation
									JOINT newVegas:RightHandThumb2
									{
										OFFSET -5.480453 -3.164139 3.164143
										CHANNELS 3 Xrotation Yrotation Zrotation
										JOINT newVegas:RightHandThumb3
										{
											OFFSET -5.159721 -2.978973 2.978967
											CHANNELS 3 Xrotation Yrotation Zrotation
											End Site
											{
												OFFSET -2.494507 5.926697 1.738678
											}
										}
									}
								}
								JOINT newVegas:RightHandIndex1
								{
									OFFSET -18.578728 -0.527832 5.208049
									CHANNELS 3 Xrotation Yrotation Zrotation
									JOINT newVegas:RightHandIndex2
									{
										OFFSET -3.192009 0.000000 0.000000
										CHANNELS 3 Xrotation Yrotation Zrotation
										JOINT newVegas:RightHandIndex3
										{
											OFFSET -3.835129 0.000000 0.000000
											CHANNELS 3 Xrotation Yrotation Zrotation
											End Site
											{
												OFFSET 0.034599 3.816971 0.371180
											}
										}
									}
								}
								JOINT newVegas:RightHandMiddle1
								{
									OFFSET -18.476105 0.000000 0.000000
									CHANNELS 3 Xrotation Yrotation Zrotation
									JOINT newVegas:RightHandMiddle2
									{
										OFFSET -3.324875 0.000000 0.000000
										CHANNELS 3 Xrotation Yrotation Zrotation
										JOINT newVegas:RightHandMiddle3
										{
											OFFSET -4.596550 0.000000 0.000000
											CHANNELS 3 Xrotation Yrotation Zrotation
											End Site
											{
												OFFSET -0.057701 4.578827 0.399218
											}
										}
									}
								}
								JOINT newVegas:RightHandRing1
								{
									OFFSET -17.732719 0.121887 -4.201567
									CHANNELS 3 Xrotation Yrotation Zrotation
									JOINT newVegas:RightHandRing2
									{
										OFFSET -2.733170 0.000000 0.000000
										CHANNELS 3 Xrotation Yrotation Zrotation
										JOINT newVegas:RightHandRing3
										{
											OFFSET -3.178268 0.000000 0.000000
											CHANNELS 3 Xrotation Yrotation Zrotation
											End Site
											{
												OFFSET -0.119102 3.170624 0.185394
											}
										}
									}
								}
								JOINT newVegas:RightHandPinky1
								{
									OFFSET -15.989624 -0.606689 -7.535461
									CHANNELS 3 Xrotation Yrotation Zrotation
									JOINT newVegas:RightHandPinky2
									{
										OFFSET -2.538986 0.000000 0.000000
										CHANNELS 3 Xrotation Yrotation Zrotation
										JOINT newVegas:RightHandPinky3
										{
											OFFSET -2.593102 0.000000 0.000000
											CHANNELS 3 Xrotation Yrotation Zrotation
											End Site
											{
												OFFSET 0.150902 2.584198 0.152708
											}
										}
									}
								}
							}
							JOINT newVegas:Right_CapeC
							{
								OFFSET -15.715958 -8.608795 -6.935905
								CHANNELS 3 Xrotation Yrotation Zrotation
								JOINT newVegas:Right_CapeC1
								{
									OFFSET 0.000000 -8.688499 0.000000
									CHANNELS 3 Xrotation Yrotation Zrotation
									End Site
									{
										OFFSET 0.000000 8.688499 0.000000
									}
								}
							}
							JOINT newVegas:Right_Sleeve
							{
								OFFSET -0.267448 -0.649994 0.577675
								CHANNELS 3 Xrotation Yrotation Zrotation
								End Site
								{
									OFFSET 0.000000 15.991302 0.000000
								}
							}
						}
						JOINT newVegas:Right_CapeA
						{
							OFFSET -5.115540 -8.608795 -10.395824
							CHANNELS 3 Xrotation Yrotation Zrotation
							JOINT newVegas:Right_CapeA1
							{
								OFFSET 0.000000 -8.688499 0.000000
								CHANNELS 3 Xrotation Yrotation Zrotation
								End Site
								{
									OFFSET 0.000000 8.688499 0.000000
								}
							}
						}
						JOINT newVegas:Right_CapeB
						{
							OFFSET -26.118187 -8.608795 -7.079266
							CHANNELS 3 Xrotation Yrotation Zrotation
							JOINT newVegas:Right_CapeB1
							{
								OFFSET 0.000000 -8.688499 0.000000
								CHANNELS 3 Xrotation Yrotation Zrotation
								End Site
								{
									OFFSET 0.000000 8.688499 0.000000
								}
							}
						}
					}
				}
				JOINT newVegas:Left_Collar
				{
					OFFSET 18.625099 8.655502 8.828100
					CHANNELS 3 Xrotation Yrotation Zrotation
					JOINT newVegas:Left_Collar1
					{
						OFFSET 14.783401 10.540405 -1.259500
						CHANNELS 3 Xrotation Yrotation Zrotation
						End Site
						{
							OFFSET 0.000000 18.199875 0.000000
						}
					}
				}
				JOINT newVegas:Collar_Back
				{
					OFFSET 0.000000 15.630707 -20.132601
					CHANNELS 3 Xrotation Yrotation Zrotation
					End Site
					{
						OFFSET 0.000000 22.523010 0.000000
					}
				}
				JOINT newVegas:Left_Peck
				{
					OFFSET 17.239599 -5.132599 25.482599
					CHANNELS 3 Xrotation Yrotation Zrotation
					End Site
					{
						OFFSET 0.000000 22.523010 0.000000
					}
				}
				JOINT newVegas:Right_Peck
				{
					OFFSET -17.239599 -5.132202 25.482599
					CHANNELS 3 Xrotation Yrotation Zrotation
					End Site
					{
						OFFSET 0.000000 22.523010 0.000000
					}
				}
				JOINT newVegas:Right_Collar
				{
					OFFSET -18.625099 8.655792 8.828100
					CHANNELS 3 Xrotation Yrotation Zrotation
					JOINT newVegas:Right_Collar1
					{
						OFFSET -14.783401 10.539993 -1.259500
						CHANNELS 3 Xrotation Yrotation Zrotation
						End Site
						{
							OFFSET 0.000000 18.199631 0.000000
						}
					}
				}
			}
		}
		JOINT newVegas:Belly
		{
			OFFSET 0.000000 -6.540398 9.014299
			CHANNELS 3 Xrotation Yrotation Zrotation
			End Site
			{
				OFFSET 0.000000 11.566666 0.000000
			}
		}
	}
	JOINT newVegas:ElvisFacialAnim_Joint
	{
		OFFSET 1.000000 -95.330101 -8.825800
		CHANNELS 3 Xrotation Yrotation Zrotation
		End Site
		{
			OFFSET 0.000000 35.315800 0.000000
		}
	}
}
MOTION
Frames: 4
Frame Time: 0.033333
-2.949283 79.017838 5.057148 19.813911 -27.719464 4.260687 0.000000 -0.000001 0.000001 -62.524904 -2.672050 43.550386 64.328955 0.209064 -9.933679 -11.583209 0.766377 -16.789331 -0.000000 -0.000000 0.000000 -0.000001 -0.000000 0.000001 -56.555664 9.425888 -10.231251 56.643186 9.935678 -4.397031 -19.485918 -2.445084 19.866427 0.000000 0.000000 -0.000000 -0.000002 0.000003 -0.000000 3.382567 -1.177061 0.052681 6.899003 -3.197057 -1.648616 6.915374 -3.162201 -1.649062 -1.883017 2.536323 3.518836 -1.883020 2.536324 3.518839 -0.000000 0.000001 -0.000001 -1.883085 2.536327 3.518839 -1.882872 2.536331 3.518835 -0.000002 -0.000001 0.000001 -0.000000 0.000001 -0.000001 8.140551 3.384875 17.577704 -30.441941 25.223658 -54.965681 -0.000045 -78.062164 -0.000075 31.046239 -6.617190 30.495674 -8.282577 -4.854384 0.763055 7.877992 20.041191 0.885352 -0.000000 -0.000001 -0.000003 6.652462 -4.673846 -4.617318 0.044135 0.718563 -7.029844 0.000000 0.000000 0.000000 0.641795 6.688122 -8.250183 0.209640 1.554690 -15.358316 0.000000 -0.000001 -0.000001 3.951445 14.020754 -19.646213 0.090509 1.026883 -10.073378 0.000001 -0.000001 0.000005 6.045091 19.017898 -21.225284 0.194613 1.498916 -14.794099 -0.000002 -0.000002 -0.000000 0.000001 0.000000 -0.000002 0.000001 0.000000 -0.000002 0.000000 -0.000000 -0.000002 0.000001 -0.000001 -0.000001 0.000001 -0.000001 -0.000001 0.000001 -0.000001 -0.000001 0.000000 0.000000 -0.000002 -1.661879 27.181154 4.072346 -16.238613 -8.251785 31.858625 0.000038 114.643031 -0.000045 4.331236 4.580760 -19.435092 -24.533659 5.696823 0.938039 5.136906 -22.469396 -4.586699 0.000004 -0.000000 -0.000001 4.150374 10.703664 8.446482 0.177538 -1.274925 15.854532 -0.000003 0.000001 -0.000000 -0.329093 1.498991 5.556942 0.049262 -0.676374 8.332478 0.000003 -0.000000 -0.000001 0.085488 -2.873879 6.654857 0.164952 -1.229704 15.277864 -0.000002 -0.000001 -0.000001 -1.230253 -6.747872 9.898902 0.289188 -1.617090 20.276745 0.000000 -0.000000 -0.000000 0.000001 0.000001 0.000000 0.000001 0.000000 -0.000000 0.000001 0.000000 0.000000 0.000000 0.000003 0.000002 0.000001 0.000002 0.000002 0.000000 0.000003 0.000002 0.000001 0.000002 0.000003 0.000001 0.000000 -0.000000 0.000001 0.000000 -0.000000 0.000001 0.000000 -0.000000 0.000001 0.000000 -0.000000 0.000001 0.000000 -0.000000 0.000001 0.000000 -0.000000 0.000001 0.000000 -0.000000 -0.000001 -0.000000 -0.000000 0.000000 -0.000001 0.000001 
-2.804647 78.789459 4.901501 20.113765 -27.465143 3.966903 0.000001 0.000000 -0.000000 -63.624776 -3.385840 43.779552 65.070413 -0.073323 -10.013440 -11.599505 0.640229 -16.502599 0.000000 0.000000 -0.000000 0.000000 0.000000 -0.000001 -59.384643 13.595884 -6.266529 60.051535 5.553710 -4.424483 -17.478557 -3.326724 19.318391 0.000000 0.000002 -0.000000 -0.000000 0.000001 0.000001 3.271531 -1.154116 0.118186 6.693417 -3.171983 -1.504330 6.710209 -3.137170 -1.504147 -1.800098 2.490536 3.492862 -1.800110 2.490547 3.492848 -0.000000 0.000001 -0.000001 -1.800082 2.490504 3.492859 -1.800150 2.490573 3.492853 -0.000003 0.000001 -0.000000 -0.000000 0.000001 -0.000000 8.293467 3.135667 16.145840 -29.737773 24.739934 -52.150837 0.000091 -75.387380 0.000108 29.315718 -6.994331 31.601622 -8.667473 -4.738132 1.562308 7.917911 20.136070 0.867035 0.000000 0.000000 -0.000001 6.688414 -4.794596 -4.048811 0.041426 0.696248 -6.810530 0.000000 -0.000001 0.000000 0.585987 6.598381 -7.553230 0.211571 1.561697 -15.429129 0.000001 0.000001 -0.000003 3.814522 14.032442 -18.903119 0.085945 1.000829 -9.815286 -0.000000 -0.000002 0.000003 6.120950 19.147020 -20.572424 0.184818 1.461331 -14.415002 0.000002 -0.000003 -0.000001 -0.000000 -0.000001 -0.000000 -0.000000 -0.000001 -0.000000 -0.000001 -0.000001 -0.000000 0.000001 -0.000002 -0.000001 0.000001 -0.000002 -0.000003 0.000001 -0.000002 -0.000001 0.000000 -0.000002 -0.000001 -1.972263 26.010417 5.388783 -15.197448 -10.487296 31.508820 0.000039 114.660325 -0.000034 4.196821 4.917982 -18.489191 -24.645435 5.678411 0.937836 5.104123 -22.603913 -4.686494 -0.000000 -0.000002 -0.000001 4.266027 11.044761 8.488585 0.179893 -1.283180 15.959888 -0.000004 0.000001 -0.000000 -0.358150 1.594377 5.825460 0.046353 -0.656163 8.082073 -0.000002 0.000000 -0.000000 0.084180 -2.861740 6.848927 0.162215 -1.219665 15.150553 0.000004 0.000001 0.000000 -1.244726 -6.770822 10.069958 0.299844 -1.645621 20.650978 0.000000 -0.000000 -0.000001 0.000001 0.000000 -0.000000 0.000001 -0.000000 -0.000000 0.000001 0.000000 -0.000000 -0.000001 -0.000001 -0.000001 -0.000001 -0.000001 -0.000000 -0.000001 -0.000001 -0.000001 -0.000000 -0.000001 0.000001 -0.000001 0.000000 -0.000001 -0.000001 0.000000 -0.000001 -0.000001 0.000000 -0.000001 -0.000001 0.000000 -0.000001 -0.000001 0.000000 -0.000001 -0.000001 0.000000 -0.000001 -0.000001 0.000000 -0.000001 0.000001 0.000000 0.000000 0.000001 0.000000 -0.000000 
-2.959062 78.080841 4.482290 20.841579 -27.445126 4.161561 0.000000 -0.000000 -0.000000 -65.085836 -4.581726 44.290266 66.405674 -0.257290 -10.171370 -11.597220 0.614172 -16.759811 0.000000 -0.000000 -0.000000 0.000000 -0.000000 0.000002 -68.158417 17.138864 -0.229363 67.098952 1.112362 -4.402570 -10.036320 -3.104526 16.880775 -0.000001 -0.000000 0.000000 0.000000 -0.000000 -0.000002 3.180685 -1.123049 0.114736 6.515627 -3.110466 -1.543383 6.533803 -3.072659 -1.543837 -1.787301 2.459215 3.449444 -1.787308 2.459232 3.449445 -0.000001 0.000001 -0.000001 -1.787310 2.459214 3.449453 -1.787319 2.459206 3.449453 -0.000002 -0.000002 0.000001 -0.000001 0.000001 -0.000001 8.429957 2.882819 14.689369 -29.971235 25.238375 -49.112086 0.000008 -73.188940 -0.000000 28.470628 -7.726649 32.839502 -9.071544 -4.649559 2.405205 7.921813 20.220201 0.856843 0.000001 -0.000003 -0.000003 6.722000 -4.900966 -3.455813 0.038984 0.675445 -6.606234 0.000000 -0.000000 -0.000000 0.528665 6.505172 -6.813859 0.213480 1.568598 -15.499187 0.000000 -0.000000 -0.000000 3.659121 14.018328 -18.109545 0.081474 0.974667 -9.556358 0.000000 0.000001 0.000002 5.982620 19.337032 -19.811879 0.175241 1.423590 -14.034567 -0.000001 -0.000003 -0.000002 -0.000001 0.000000 0.000001 -0.000001 0.000000 0.000001 -0.000002 0.000000 0.000001 -0.000000 -0.000001 -0.000000 0.000000 -0.000001 -0.000002 -0.000000 -0.000001 -0.000000 -0.000001 0.000000 -0.000000 -2.307267 24.804527 6.880609 -14.269596 -13.518511 31.049637 0.000078 114.656214 -0.000067 4.497510 5.524617 -17.029386 -24.731437 5.657276 0.948755 5.076836 -22.712201 -4.771469 0.000003 0.000001 -0.000001 4.358036 11.341422 8.550122 0.181504 -1.288784 16.031490 -0.000001 0.000001 -0.000000 -0.387417 1.668784 6.110567 0.043499 -0.635711 7.828221 0.000000 -0.000000 0.000000 0.084221 -2.861650 7.061596 0.159449 -1.209440 15.020016 -0.000001 -0.000001 0.000001 -1.256366 -6.794875 10.253755 0.309778 -1.671758 20.994519 -0.000000 -0.000000 -0.000000 0.000003 -0.000001 0.000000 0.000003 -0.000001 -0.000000 0.000003 -0.000001 0.000000 0.000001 -0.000002 0.000001 0.000001 -0.000001 0.000001 0.000001 -0.000002 0.000001 0.000001 -0.000001 0.000002 -0.000000 0.000003 -0.000003 -0.000000 0.000003 -0.000003 -0.000000 0.000003 -0.000003 -0.000000 0.000003 -0.000003 -0.000000 0.000003 -0.000003 -0.000000 0.000003 -0.000003 -0.000000 0.000003 -0.000003 -0.000001 -0.000001 -0.000000 0.000000 -0.000000 -0.000000 
-3.253166 76.698944 3.886889 22.241140 -26.396238 4.839601 -0.000001 0.000001 -0.000000 -68.190143 -6.458846 44.163429 68.293654 -0.855209 -10.338401 -11.194268 0.540907 -16.926882 -0.000000 -0.000000 -0.000000 -0.000001 -0.000000 0.000000 -78.470233 20.567351 5.645455 72.861193 -0.578320 -3.831747 3.123485 -6.065724 20.897689 -0.000001 0.000001 -0.000000 0.000001 -0.000002 -0.000001 3.123554 -1.354714 -0.002755 6.407189 -3.384767 -1.551963 6.428153 -3.345596 -1.551836 -1.938629 2.433139 3.365559 -1.938607 2.433145 3.365552 -0.000000 -0.000002 0.000001 -1.938692 2.433133 3.365559 -1.938534 2.433123 3.365564 0.000001 0.000001 -0.000002 -0.000000 -0.000002 0.000001 8.560267 2.658672 13.190953 -30.553390 25.730014 -46.512028 0.000013 -70.899167 0.000024 26.143483 -8.236571 34.410742 -9.495383 -4.591448 3.292136 7.886908 20.292712 0.855535 -0.000000 -0.000002 -0.000003 6.753127 -4.991875 -2.838678 0.036801 0.656331 -6.418272 -0.000000 -0.000001 -0.000000 0.469959 6.408413 -6.031282 0.215361 1.575364 -15.567746 -0.000001 -0.000000 -0.000000 3.485404 13.975967 -17.264264 0.077119 0.948453 -9.296757 -0.000001 -0.000001 0.000003 5.811631 19.518708 -19.001786 0.165884 1.385633 -13.653003 -0.000001 -0.000002 -0.000000 -0.000001 -0.000000 -0.000000 -0.000001 -0.000000 -0.000000 -0.000002 0.000000 0.000000 0.000000 -0.000003 -0.000003 0.000001 -0.000003 -0.000002 0.000000 -0.000003 -0.000003 -0.000000 -0.000002 -0.000003 -2.192882 23.469457 7.458066 -12.416048 -16.704124 31.047567 0.000036 114.656405 -0.000022 5.126518 6.528840 -16.699281 -24.789767 5.633131 0.971583 5.055551 -22.792311 -4.840314 0.000001 0.000000 -0.000000 4.424541 11.589934 8.632339 0.182263 -1.291457 16.065920 -0.000002 0.000000 -0.000000 -0.416506 1.720826 6.412186 0.040688 -0.614883 7.570392 -0.000001 0.000001 0.000000 0.085660 -2.873089 7.293432 0.156617 -1.198832 14.885323 -0.000002 0.000001 -0.000001 -1.264956 -6.819941 10.450108 0.318857 -1.695209 21.303225 0.000004 -0.000000 -0.000003 0.000002 -0.000001 0.000000 0.000002 -0.000001 0.000001 0.000002 -0.000001 -0.000001 -0.000000 -0.000003 -0.000004 -0.000000 -0.000003 -0.000004 -0.000000 -0.000003 -0.000004 0.000000 -0.000003 -0.000003 0.000001 -0.000000 -0.000001 0.000001 -0.000000 -0.000001 0.000001 -0.000000 -0.000001 0.000001 -0.000000 -0.000001 0.000001 -0.000000 -0.000001 0.000001 -0.000000 -0.000001 0.000001 -0.000000 -0.000001 0.000001 0.000003 -0.000001 -0.000001 0.000001 -0.000000 
